<svg width="72" height="69" viewBox="0 0 72 69" fill="none" xmlns="http://www.w3.org/2000/svg">
<path d="M0.642822 32.3981C0.642822 36.1938 1.77128 39.5792 4.0282 42.5542C6.28511 45.5292 9.19175 47.581 12.7823 48.6752L10.5596 54.4201C10.457 54.8989 10.628 55.1724 11.0383 55.1724H18.322L14.7656 68.0984H15.7231L29.2988 50.2482C29.4356 50.1115 29.4356 49.9405 29.3672 49.7695C29.2988 49.5985 29.1278 49.5301 28.8885 49.5301H21.4338L29.9143 33.6633C30.1195 33.1846 29.9827 32.9452 29.4356 32.9452H19.3821C19.0743 32.9452 18.8007 33.1162 18.6298 33.424L14.9024 43.2381C12.4745 42.6226 10.457 41.289 8.84979 39.2714C7.24259 37.2539 6.45609 34.9628 6.45609 32.3981C6.45609 29.5598 7.41357 27.0978 9.32853 25.0118C11.2435 22.9259 13.6372 21.729 16.5096 21.3871L18.2878 21.1477C18.7323 21.1477 18.9717 20.9425 18.9717 20.5664L19.2111 18.7882C19.553 15.0951 21.0919 11.9833 23.8617 9.48697C26.6316 6.99068 29.8801 5.72544 33.6075 5.72544C37.3348 5.72544 40.5834 6.99068 43.3533 9.48697C46.1573 11.9833 47.7303 15.0951 48.1407 18.7882L48.3458 20.7715C48.3458 21.1819 48.551 21.3871 48.9955 21.3871H54.501C57.6129 21.3871 60.2459 22.4813 62.4345 24.6357C64.623 26.79 65.7172 29.3889 65.7172 32.4323C65.7172 35.3389 64.6914 37.8694 62.6738 39.9895C60.6563 42.1097 58.16 43.2723 55.185 43.5117C54.7404 43.5117 54.501 43.7169 54.501 44.1614V48.8462C54.501 49.2224 54.7404 49.4275 55.185 49.4275C57.4077 49.3592 59.5278 48.8462 61.5454 47.9229C63.5629 46.9997 65.3069 45.7686 66.7431 44.264C68.1793 42.7594 69.342 40.9812 70.1969 38.8953C71.0518 36.8435 71.4963 34.6892 71.4963 32.4665C71.4963 29.3889 70.744 26.5506 69.2052 23.9517C67.6664 21.3529 65.6147 19.3011 63.0158 17.7965C60.4169 16.2919 57.5787 15.5396 54.5352 15.5396H53.441C52.3125 10.9916 49.9188 7.26425 46.2257 4.39181C42.5326 1.51937 38.3607 0.0489502 33.6417 0.0489502C28.8201 0.0489502 24.5114 1.55356 20.7841 4.52859C17.0568 7.50362 14.6631 11.3335 13.603 16.0183C9.84146 16.9074 6.72966 18.8566 4.26757 21.9342C1.80548 25.0118 0.642822 28.4656 0.642822 32.3981ZM28.5465 66.1151C28.5465 66.6622 28.7175 67.1751 29.0594 67.688C29.4014 68.201 29.9485 68.5771 30.6325 68.7823C31.1112 68.8849 31.3848 68.9533 31.4873 68.9533C31.7951 68.9533 32.2055 68.8507 32.7868 68.6113C33.5049 68.3036 33.9836 67.688 34.223 66.8332L35.1805 63.2426C35.3857 62.4903 35.3173 61.7722 34.9069 61.0883C34.4966 60.4044 33.9152 59.9598 33.0945 59.7205C32.3422 59.5153 31.6241 59.5837 30.9402 59.994C30.2563 60.4044 29.7776 60.9857 29.5382 61.8064L28.6149 65.226C28.5807 65.8073 28.5465 66.1151 28.5465 66.1151ZM33.1287 49.8037C33.1287 50.2824 33.2997 50.7954 33.6417 51.3083C33.9836 51.8213 34.4966 52.1974 35.1805 52.4368C35.9328 52.6761 36.6851 52.6419 37.369 52.2658C38.0529 51.8896 38.4975 51.3083 38.7368 50.4876L39.7627 46.9313C39.9679 46.179 39.8653 45.4608 39.4891 44.7769C39.0788 44.093 38.4633 43.6143 37.6768 43.3749C36.8903 43.1697 36.1722 43.2381 35.454 43.6485C34.7359 44.0588 34.2914 44.6401 34.052 45.4266L33.2313 48.8804C33.1629 49.4617 33.1287 49.7695 33.1287 49.8037ZM42.7719 55.446C42.7719 56.0273 42.9429 56.6086 43.3191 57.19C43.6952 57.7713 44.2423 58.1475 44.9263 58.3868C44.9946 58.3868 45.1314 58.421 45.3366 58.4552C45.5076 58.4894 45.6444 58.5236 45.7469 58.5236C46.1915 58.5236 46.636 58.4552 47.0464 58.25C47.6961 58.0107 48.1748 57.361 48.4484 56.3009L49.3033 52.8471C49.5427 52.0606 49.4743 51.3083 49.0981 50.5902C48.722 49.8721 48.1406 49.3933 47.3883 49.154C46.5334 48.9488 45.747 49.0514 45.063 49.4275C44.3791 49.8379 43.9346 50.4534 43.7978 51.2399L42.8745 54.7621C42.8061 54.9673 42.7719 55.2066 42.7719 55.446ZM47.4225 39.0662C47.3883 39.6134 47.5593 40.1263 47.9355 40.6734C48.3116 41.2206 48.8588 41.6309 49.6111 41.9729C49.8846 42.1097 50.1582 42.1781 50.5001 42.1781C50.8763 42.1781 51.2525 42.0755 51.6628 41.9045C52.3809 41.5625 52.8597 40.9128 53.1674 39.9553L54.1591 36.4332C54.2275 35.9886 54.2617 35.7493 54.2617 35.6809C54.2617 35.0996 54.0907 34.5524 53.7145 34.0053C53.3384 33.4582 52.7913 33.082 52.039 32.8768C51.9706 32.8768 51.8338 32.8426 51.6628 32.8084C51.4576 32.7059 51.3209 32.7058 51.2183 32.7058C50.6369 32.7058 50.0898 32.8768 49.5427 33.2188C48.9955 33.5607 48.6194 34.1079 48.4142 34.8602L47.4909 38.3139C47.4567 38.5875 47.4225 38.8269 47.4225 39.0662Z" fill="black"/>
</svg>
