<svg width="57" height="71" viewBox="0 0 57 71" fill="none" xmlns="http://www.w3.org/2000/svg">
<path d="M28.5 31.95C33.2381 31.95 42.75 34.3285 42.75 39.05V39.618C39.2944 43.594 34.2 46.15 28.5 46.15C22.8 46.15 17.7056 43.594 14.25 39.618V39.05C14.25 34.3285 23.7619 31.95 28.5 31.95ZM28.5 28.4C24.5812 28.4 21.375 25.205 21.375 21.3C21.375 17.395 24.5812 14.2 28.5 14.2C32.4188 14.2 35.625 17.395 35.625 21.3C35.625 25.205 32.4188 28.4 28.5 28.4ZM49.875 29.11C49.875 16.2235 40.4344 7.1 28.5 7.1C16.5656 7.1 7.125 16.2235 7.125 29.11C7.125 37.417 14.0719 48.422 28.5 61.557C42.9281 48.422 49.875 37.417 49.875 29.11ZM28.5 0C43.4625 0 57 11.431 57 29.11C57 40.896 47.4881 54.8475 28.5 71C9.51188 54.8475 0 40.896 0 29.11C0 11.431 13.5375 0 28.5 0Z" fill="white"/>
</svg>
