<svg width="72" height="56" viewBox="0 0 72 56" fill="none" xmlns="http://www.w3.org/2000/svg">
<path d="M0.664551 42.1973C0.664551 44.5696 1.24445 46.7574 2.40426 48.7607C3.56406 50.764 5.14561 52.3456 7.14891 53.5054C9.15221 54.6652 11.3137 55.2451 13.6596 55.2451H42.2066C44.5526 55.2451 46.7404 54.6652 48.7437 53.5054C50.747 52.3456 52.3549 50.764 53.5147 48.7607C54.6745 46.7574 55.2808 44.5696 55.2808 42.1973C55.2808 40.4576 54.9118 38.6915 54.1737 36.9255C56.177 34.5004 57.1786 31.5745 57.1786 28.2269C57.1786 26.3554 56.8096 24.563 56.0979 22.8496C55.3862 21.1363 54.3846 19.6865 53.1457 18.4477C51.9068 17.2088 50.4571 16.2071 48.7437 15.4954C47.0304 14.7574 45.2379 14.4147 43.3664 14.4147C39.4653 14.4147 36.0649 15.9435 33.1391 19.0012C31.1094 17.8414 28.7371 17.2615 26.0221 17.2615C22.3054 17.2615 19.0369 18.4213 16.1901 20.7146C13.3433 23.0078 11.4982 25.96 10.7074 29.5449C7.75517 30.2302 5.35649 31.7327 3.48498 34.105C1.61348 36.4773 0.664551 39.166 0.664551 42.1973ZM5.17197 42.1973C5.17197 39.9831 5.91003 38.0853 7.38614 36.4773C8.86226 34.8694 10.7074 33.9469 12.9216 33.6833L14.2395 33.6042C14.5558 33.6042 14.7404 33.446 14.7404 33.1297L14.9249 31.7063C15.2939 28.8595 16.5328 26.4609 18.6415 24.563C20.7503 22.6388 23.228 21.6898 26.0484 21.6898C28.948 21.6898 31.4784 22.6651 33.6135 24.5894C35.775 26.5136 36.9612 28.8859 37.2247 31.7327L37.4093 33.2615C37.462 33.5515 37.6465 33.7096 37.9628 33.7096H42.2066C44.5262 33.7096 46.5295 34.5531 48.2165 36.2401C49.9035 37.9271 50.747 39.904 50.747 42.2236C50.747 44.6223 49.9035 46.652 48.2429 48.339C46.5823 50.026 44.5526 50.8695 42.233 50.8695H13.6596C11.34 50.8695 9.36308 50.026 7.67609 48.3126C6.01547 46.5993 5.17197 44.5696 5.17197 42.1973ZM22.8326 9.85457C22.8326 10.4872 23.0435 11.0407 23.4652 11.5152L25.205 13.2022C25.8639 13.703 26.4175 13.9139 26.8919 13.8612C27.4455 13.8612 27.9199 13.6239 28.3417 13.1758C28.7634 12.7277 28.9743 12.1742 28.9743 11.5416C28.9743 10.9089 28.7371 10.3818 28.289 9.98636L26.7338 8.24666C26.2593 7.82491 25.7321 7.61404 25.1259 7.61404C24.4933 7.61404 23.9397 7.82491 23.4916 8.27302C23.0435 8.69476 22.8326 9.22195 22.8326 9.85457ZM36.9084 21.5317C38.7272 19.7656 40.8887 18.8958 43.3664 18.8958C45.976 18.8958 48.1902 19.792 50.009 21.6108C51.8277 23.4295 52.7503 25.6174 52.7503 28.2269C52.7503 29.8612 52.3022 31.4955 51.406 33.077C48.8491 30.5465 45.7915 29.2813 42.2066 29.2813H41.3631C40.7042 26.4081 39.228 23.8249 36.9084 21.5317ZM41.205 7.61404C41.205 8.29938 41.4159 8.82656 41.8112 9.24831C42.2066 9.67005 42.7338 9.85457 43.3664 9.85457C44.0518 9.85457 44.579 9.64369 45.0007 9.24831C45.4224 8.82656 45.607 8.29938 45.607 7.61404V2.2104C45.607 1.57778 45.3961 1.07696 44.9743 0.655211C44.5526 0.233464 44.0254 0.0489502 43.3664 0.0489502C42.7338 0.0489502 42.233 0.259824 41.8112 0.655211C41.3895 1.0506 41.205 1.57778 41.205 2.2104V7.61404ZM55.7552 13.6503C55.7552 14.3356 55.9398 14.8628 56.3352 15.2846C56.8887 15.7063 57.4422 15.9172 57.9694 15.9172C58.4439 15.9172 58.9711 15.7063 59.5246 15.2846L63.294 11.5152C63.7157 11.0407 63.9266 10.4872 63.9266 9.82821C63.9266 9.19559 63.7157 8.6684 63.294 8.24666C62.8722 7.82491 62.345 7.61404 61.7388 7.61404C61.1062 7.61404 60.6053 7.82491 60.21 8.24666L56.3352 12.016C55.9398 12.5168 55.7552 13.044 55.7552 13.6503ZM57.8376 44.8596C57.8376 45.4922 58.0485 46.0457 58.4966 46.5202L60.21 48.1808C60.6053 48.6026 61.1062 48.8134 61.7388 48.8134C62.3714 48.8134 62.8986 48.6026 63.3203 48.1545C63.7421 47.7064 63.953 47.1792 63.953 46.5202C63.953 45.9403 63.7421 45.4131 63.3203 44.9914L61.607 43.278C61.1852 42.8563 60.6844 42.6454 60.1045 42.6454C59.4719 42.6454 58.9447 42.8563 58.523 43.278C58.0749 43.6998 57.8376 44.2269 57.8376 44.8596ZM61.7124 28.2269C61.7124 28.8332 61.9497 29.334 62.3978 29.7558C62.8195 30.1775 63.3731 30.3884 64.0057 30.3884H69.3829C69.9892 30.3884 70.49 30.1775 70.9118 29.7821C71.3335 29.3867 71.518 28.8595 71.518 28.2269C71.518 27.5943 71.3072 27.0671 70.9118 26.6454C70.5164 26.2236 69.9892 25.9864 69.3829 25.9864H64.0057C63.3731 25.9864 62.8459 26.1973 62.3978 26.6454C61.9233 27.0935 61.7124 27.6207 61.7124 28.2269Z" fill="white"/>
</svg>
