<svg width="117" height="117" viewBox="0 0 117 117" fill="none" xmlns="http://www.w3.org/2000/svg">
<path d="M0 58.2162C0 56.9006 0.43854 55.7494 1.37044 54.8175C2.30234 53.9404 3.4535 53.5019 4.65949 53.5019H15.8423C17.1031 53.5019 18.1446 53.9404 19.0217 54.8723C19.8439 55.8042 20.2825 56.9006 20.2825 58.2162C20.2825 59.5318 19.8988 60.6282 19.0765 61.5601C18.2542 62.492 17.1579 62.9305 15.8971 62.9305H4.71431C3.4535 62.9305 2.35715 62.492 1.42526 61.5601C0.493359 60.6282 0 59.5318 0 58.2162ZM15.6778 96.2048C15.6778 94.9439 16.1164 93.8476 16.9386 92.8609L24.9968 85.022C25.8191 84.1449 26.9154 83.7612 28.231 83.7612C29.5466 83.7612 30.643 84.1997 31.5201 85.022C32.3972 85.8442 32.8357 86.8858 32.8357 88.1466C32.8357 89.4622 32.3972 90.6682 31.5201 91.6549L23.736 99.439C21.4885 101.193 19.241 101.193 16.9934 99.439C16.1164 98.5619 15.6778 97.4656 15.6778 96.2048ZM15.6778 20.3373C15.6778 19.0765 16.1164 17.9801 16.9386 16.9934C18.035 16.0615 19.1861 15.623 20.4469 15.623C21.6529 15.623 22.7493 16.0615 23.6812 16.9386L31.5201 24.9968C32.3972 25.8191 32.8357 26.9154 32.8357 28.231C32.8357 29.5466 32.3972 30.643 31.5201 31.5201C30.643 32.3972 29.5466 32.8357 28.231 32.8357C26.9154 32.8357 25.8191 32.3972 24.9968 31.5201L16.9934 23.6812C16.1164 22.8041 15.6778 21.6529 15.6778 20.3373ZM29.6563 58.2162C29.6563 53.1182 30.9171 48.3491 33.4935 43.9637C36.0699 39.5783 39.5234 36.0699 43.9637 33.4935C48.4039 30.9171 53.1182 29.6563 58.2162 29.6563C62.0534 29.6563 65.7262 30.4237 69.2894 31.9586C72.7977 33.4935 75.8675 35.5218 78.3891 38.0982C80.9655 40.6746 82.9937 43.6896 84.4738 47.1979C85.9539 50.7062 86.7213 54.4338 86.7213 58.271C86.7213 63.4239 85.4605 68.193 82.8841 72.5784C80.3077 76.9638 76.8542 80.4173 72.4688 82.9937C68.0834 85.5702 63.3142 86.831 58.1614 86.831C53.0085 86.831 48.2394 85.5702 43.854 82.9937C39.4686 80.4173 36.0151 76.9638 33.4387 72.5784C30.9719 68.1382 29.6563 63.3691 29.6563 58.2162ZM38.9753 58.2162C38.9753 63.5883 40.8391 68.1382 44.6215 71.9206C48.3491 75.703 52.8989 77.6216 58.271 77.6216C63.6431 77.6216 68.193 75.703 71.9754 71.9206C75.7578 68.1382 77.6764 63.5883 77.6764 58.2162C77.6764 52.9537 75.7578 48.4587 71.9754 44.6763C68.193 40.9487 63.6431 39.0849 58.271 39.0849C52.9537 39.0849 48.4039 40.9487 44.6763 44.6763C40.8391 48.4587 38.9753 52.9537 38.9753 58.2162ZM53.5567 100.864C53.5567 99.5486 53.9953 98.4523 54.9272 97.5752C55.8591 96.6981 56.9554 96.2596 58.2162 96.2596C59.5318 96.2596 60.683 96.6981 61.5601 97.5752C62.4372 98.4523 62.8757 99.5486 62.8757 100.864V111.773C62.8757 113.089 62.4372 114.24 61.5053 115.172C60.5734 116.104 59.477 116.542 58.2162 116.542C56.9554 116.542 55.8042 116.104 54.9272 115.172C53.9953 114.24 53.5567 113.089 53.5567 111.773V100.864ZM53.5567 15.8971V4.71431C53.5567 3.4535 53.9953 2.35715 54.9272 1.42526C55.8591 0.493359 56.9554 0 58.271 0C59.5866 0 60.6282 0.43854 61.5601 1.37044C62.492 2.30234 62.9305 3.39869 62.9305 4.65949V15.8971C62.9305 17.1579 62.492 18.1994 61.5601 19.0765C60.6282 19.9536 59.5318 20.3373 58.271 20.3373C57.0102 20.3373 55.8591 19.8988 54.982 19.0765C54.1049 18.2542 53.5567 17.1579 53.5567 15.8971ZM83.816 88.1466C83.816 86.8858 84.2545 85.8442 85.0768 85.0768C85.8991 84.1997 86.9406 83.816 88.1466 83.816C89.4622 83.816 90.5586 84.2545 91.4356 85.0768L99.439 92.9157C100.316 93.8476 100.755 94.9988 100.755 96.2596C100.755 97.5204 100.316 98.6167 99.439 99.4938C97.2463 101.193 95.0536 101.193 92.8609 99.4938L85.0768 91.7097C84.2545 90.723 83.816 89.5718 83.816 88.1466ZM83.816 28.2858C83.816 26.9154 84.2545 25.8191 85.0768 25.0516L92.8609 16.9934C93.7928 16.1164 94.8891 15.6778 96.0951 15.6778C97.4107 15.6778 98.5071 16.1164 99.3842 17.0483C100.316 17.9801 100.755 19.0765 100.755 20.3373C100.755 21.7077 100.316 22.8589 99.439 23.736L91.4356 31.5749C90.4489 32.452 89.3526 32.8905 88.1466 32.8905C86.8858 32.8905 85.8991 32.452 85.0768 31.5749C84.2545 30.6978 83.816 29.6015 83.816 28.2858ZM96.2048 58.2162C96.2048 56.9006 96.6433 55.8042 97.5204 54.8175C98.3975 53.9404 99.439 53.5019 100.645 53.5019H111.718C112.979 53.5019 114.075 53.9953 115.007 54.9272C115.939 55.8591 116.432 56.9554 116.432 58.2162C116.432 59.477 115.939 60.5734 115.007 61.5053C114.075 62.4372 112.979 62.8757 111.718 62.8757H100.645C99.3842 62.8757 98.2878 62.4372 97.4656 61.5053C96.6433 60.5734 96.2048 59.5318 96.2048 58.2162Z" fill="white"/>
</svg>
