<svg width="117" height="77" viewBox="0 0 117 77" fill="none" xmlns="http://www.w3.org/2000/svg">
<path d="M0 53.9969C0 48.8069 1.62513 44.1412 4.87538 40.1046C8.12563 36.068 12.2671 33.4469 17.3522 32.2936C18.7152 26.16 21.8081 21.0749 26.6835 17.1956C31.5589 13.2639 37.1682 11.3242 43.5639 11.3242C49.7498 11.3242 55.3067 13.2114 60.1297 17.0383C65.005 20.8653 68.1504 25.7406 69.5659 31.7169H70.9813C77.1673 31.7169 82.4096 33.8663 86.7608 38.2174C91.1119 42.5685 93.3137 47.8109 93.3137 53.9444C93.3137 60.1304 91.1119 65.3727 86.7608 69.7239C82.4096 74.075 77.1673 76.2768 70.9813 76.2768H22.3848C19.3442 76.2768 16.461 75.7002 13.7349 74.4944C11.0089 73.2887 8.54502 71.8208 6.55293 69.8287C4.56084 67.8366 2.98813 65.4252 1.7824 62.6991C0.576657 59.9731 0 56.985 0 53.9969ZM7.6014 53.9969C7.6014 57.981 9.06925 61.441 11.9001 64.2718C14.731 67.1027 18.2433 68.5706 22.3324 68.5706H70.9813C75.0179 68.5706 78.5303 67.1551 81.4136 64.2718C84.2969 61.3886 85.7647 57.981 85.7647 53.9969C85.7647 50.0127 84.3493 46.5527 81.4136 43.7219C78.5303 40.891 75.0703 39.4231 70.9813 39.4231H63.6945C63.1702 39.4231 62.9081 39.161 62.9081 38.6368L62.5411 36.068C62.0169 31.1402 59.92 26.9988 56.3028 23.7485C52.6855 20.4983 48.3868 18.8732 43.459 18.8732C38.5312 18.8732 34.2325 20.4983 30.5629 23.801C26.8932 27.0512 24.8487 31.1927 24.3769 36.068L24.0099 38.2698C24.0099 38.7941 23.7478 39.0562 23.1712 39.0562L20.8121 39.4231C17.0376 39.7377 13.8922 41.3104 11.3235 44.0888C8.91198 46.8673 7.6014 50.1699 7.6014 53.9969ZM53.9961 8.28363C53.4719 8.75544 53.5767 9.1224 54.3631 9.38452C56.6173 10.3806 58.5045 11.3242 60.0248 12.2678C60.6015 12.4251 61.0209 12.3727 61.1781 12.1105C64.376 9.1224 68.0456 7.60212 72.2919 7.60212C76.5382 7.60212 80.1554 9.01756 83.3008 11.8484C86.3938 14.6793 88.1238 18.1917 88.4907 22.3331L88.9626 25.6882H96.4067C99.8142 25.6882 102.75 26.8939 105.214 29.3578C107.678 31.8217 108.883 34.705 108.883 38.0601C108.883 41.2055 107.783 43.9316 105.633 46.2906C103.484 48.6497 100.81 49.9603 97.6124 50.3272C97.0882 50.3272 96.8261 50.5893 96.8261 51.166V57.0898C96.8261 57.6665 97.0882 57.9286 97.6124 57.9286C102.907 57.6141 107.363 55.5171 110.98 51.6902C114.598 47.8633 116.432 43.3025 116.432 38.0601C116.432 32.5033 114.493 27.7851 110.561 23.9058C106.629 19.974 101.911 18.0344 96.4067 18.0344H95.6203C94.2573 12.792 91.374 8.49332 86.9705 5.0858C82.6193 1.67828 77.6915 0.000728145 72.2919 0.000728145C64.9526 -0.0516953 58.8191 2.72675 53.9961 8.28363Z" fill="white"/>
</svg>
