<svg width="117" height="93" viewBox="0 0 117 93" fill="none" xmlns="http://www.w3.org/2000/svg">
<path d="M0 69.747C0 68.4686 0.409073 67.3948 1.27835 66.5255C2.14763 65.7074 3.17032 65.2983 4.3464 65.2983H32.0611C35.845 65.2983 39.0665 66.6278 41.7255 69.3379C44.3844 72.048 45.7139 75.2694 45.7139 79.0534C45.7139 82.8373 44.3844 86.1099 41.7255 88.7689C39.0665 91.4278 35.845 92.7573 32.0611 92.7573C28.2772 92.7573 25.0046 91.4278 22.3456 88.7177C21.5275 87.8996 21.1695 86.8769 21.1695 85.6497C21.1695 84.4225 21.5786 83.3486 22.3456 82.5816C23.1126 81.7635 24.1353 81.3544 25.4137 81.3544C26.5898 81.3544 27.6124 81.7635 28.5328 82.5816C29.5555 83.5532 30.7316 84.0645 32.0611 84.0645C33.3906 84.0645 34.5667 83.5532 35.5382 82.5816C36.5098 81.6101 37.0211 80.434 37.0211 79.0022C37.0211 77.6727 36.5098 76.4967 35.5382 75.5251C34.5667 74.5536 33.3906 74.0422 32.0611 74.0422H4.3464C3.17032 74.0422 2.14763 73.6332 1.27835 72.7639C0.409073 71.8946 0 70.9742 0 69.747ZM0 54.2022C0 52.975 0.409073 51.9011 1.27835 51.0319C2.14763 50.2137 3.17032 49.8046 4.3464 49.8046H58.2929C59.6224 49.8046 60.7985 49.2933 61.77 48.3218C62.7416 47.3502 63.2529 46.123 63.2529 44.7935C63.2529 43.464 62.7416 42.2368 61.77 41.2652C60.7985 40.2937 59.6224 39.7824 58.2929 39.7824C56.8612 39.7824 55.7362 40.2426 54.8158 41.2141C53.8954 41.9811 52.8216 42.3902 51.5432 42.3902C50.316 42.3902 49.2933 41.9811 48.4752 41.2141C47.7082 40.4471 47.2991 39.4244 47.2991 38.1461C47.2991 36.8677 47.657 35.845 48.4752 35.0269C51.083 32.419 54.3556 31.1407 58.2929 31.1407C62.0768 31.1407 65.3494 32.4702 68.0084 35.1291C70.6674 37.7881 71.9969 41.0096 71.9969 44.7424C71.9969 48.4752 70.6674 51.7477 68.0084 54.4067C65.3494 57.0657 62.128 58.3952 58.2929 58.3952H4.3464C3.11918 58.3952 2.0965 57.9861 1.27835 57.168C0.409073 56.4009 0 55.3783 0 54.2022ZM10.9938 42.1345C10.9938 42.5436 11.2495 42.7481 11.812 42.7481H19.1753C19.5844 42.7481 19.9423 42.4925 20.3003 41.9811C21.4252 39.2199 23.266 36.9188 25.6693 35.078C28.1238 33.2372 30.8339 32.2145 33.7997 32.01L36.5098 31.6009C37.1745 31.6009 37.5325 31.2941 37.5325 30.7316L37.8904 28.0726C38.4529 22.5502 40.7539 17.8969 44.8958 14.1642C49.0376 10.4314 53.8954 8.5394 59.5201 8.5394C65.196 8.5394 70.1049 10.3802 74.2468 14.113C78.3886 17.8458 80.7408 22.499 81.3544 28.0726L81.7124 31.0896C81.7124 31.652 82.0192 31.9588 82.5816 31.9588H90.8654C95.5186 31.9588 99.4559 33.5951 102.78 36.8677C106.103 40.1403 107.74 44.0265 107.74 48.6286C107.74 53.1795 106.103 57.1168 102.78 60.3894C99.4559 63.662 95.5186 65.2983 90.8654 65.2983H55.5317C54.9181 65.2983 54.5601 65.6051 54.5601 66.1676V73.2752C54.5601 73.8377 54.8669 74.1445 55.5317 74.1445H90.8654C95.5186 74.1445 99.7627 73.0195 103.7 70.7185C107.637 68.4686 110.705 65.3494 113.006 61.4632C115.307 57.5259 116.432 53.2818 116.432 48.6797C116.432 44.0265 115.307 39.7824 113.006 35.8962C110.705 32.01 107.637 28.8908 103.7 26.6409C99.7627 24.391 95.5186 23.2149 90.8654 23.2149H89.2802C87.695 16.4141 84.1157 10.8404 78.542 6.49404C73.0195 2.14764 66.6278 0 59.469 0C52.2591 0 45.8673 2.2499 40.2937 6.7497C34.7201 11.2495 31.1918 16.9765 29.7089 23.9819C25.3114 25.0046 21.4252 27.1011 18.0504 30.2714C14.6755 33.4417 12.3233 37.2256 10.9938 41.5721V41.7766V42.1345Z" fill="white"/>
</svg>
