<svg width="117" height="117" viewBox="0 0 117 117" fill="none" xmlns="http://www.w3.org/2000/svg">
<path d="M0 69.375C0 75.0842 1.98956 80.0149 5.92542 84.0805C9.86129 88.1461 14.7487 90.3519 20.5444 90.6114C21.0634 90.6114 21.3229 90.3519 21.3229 89.8761V84.1237C21.3229 83.6047 21.0634 83.3452 20.5444 83.3452C16.8247 83.1722 13.7107 81.7017 11.1588 79.0201C8.607 76.3385 7.35272 73.0947 7.35272 69.3318C7.35272 65.6987 8.56375 62.4981 10.9858 59.8598C13.4079 57.1782 16.4355 55.7076 20.0686 55.4049L22.3609 55.0589C22.8367 55.0589 23.0529 54.8426 23.0529 54.4534L23.3989 52.0745C23.918 47.3601 25.9508 43.4243 29.3676 40.3102C32.7845 37.1961 36.8501 35.6823 41.6077 35.6823C46.3654 35.6823 50.4742 37.2393 53.9776 40.3534C57.5242 43.4675 59.5138 47.3601 59.9463 51.988L60.249 54.4966C60.3355 54.9724 60.6815 55.2319 61.2006 55.2319H68.1208C71.9701 55.2319 75.2572 56.6159 78.0253 59.384C80.7934 62.1521 82.1774 65.4824 82.1774 69.375C82.1774 73.1379 80.9231 76.3385 78.3713 79.0633C75.8195 81.7882 72.7054 83.1722 68.9858 83.3885C68.4235 83.3885 68.1208 83.648 68.1208 84.167V89.9194C68.1208 90.3952 68.4235 90.6547 68.9858 90.6547C74.7382 90.4817 79.5823 88.3191 83.5615 84.2102C87.4973 80.1014 89.4869 75.1707 89.4869 69.4183C89.4869 66.4772 88.9246 63.6226 87.8433 60.7248C91.2169 56.5727 92.8605 51.7285 92.8605 46.2356C92.8605 43.1648 92.255 40.2669 91.0872 37.4556C89.9194 34.6443 88.2759 32.2654 86.243 30.2326C84.2102 28.1998 81.7882 26.5995 79.0201 25.3885C76.252 24.1775 73.2677 23.5719 70.1968 23.5719C63.5361 23.5719 57.9567 26.0805 53.5018 31.0977C49.6525 29.1946 45.6733 28.2431 41.651 28.2431C35.5525 28.2431 30.1461 30.1461 25.475 33.909C20.8039 37.6719 17.8195 42.5593 16.4787 48.5279C11.6346 49.6525 7.65548 52.1178 4.58464 56.0104C1.51379 59.903 0 64.3579 0 69.375ZM23.1394 99.7807C23.1394 100.516 23.3557 101.251 23.8315 101.986C24.3072 102.722 24.9992 103.198 25.8643 103.5C26.859 103.803 27.8106 103.76 28.6323 103.327C29.4974 102.938 30.0596 102.116 30.3624 100.905L30.9679 98.2669C31.1842 97.2721 31.0544 96.3638 30.5354 95.5421C30.0164 94.677 29.2811 94.1148 28.2863 93.812C27.2916 93.5093 26.3833 93.639 25.5183 94.158C24.6532 94.677 24.1342 95.4123 23.8747 96.4071L23.2692 98.9589C23.1827 99.2184 23.1394 99.4779 23.1394 99.7807ZM26.4698 87.2378C26.4698 88.1893 26.8158 89.0111 27.5078 89.7031C28.1998 90.4817 29.0216 90.8277 29.9299 90.8277C30.9679 90.8277 31.8329 90.4817 32.525 89.7896C33.2602 89.0976 33.6062 88.2758 33.6062 87.2378C33.6062 86.243 33.2602 85.378 32.525 84.686C31.7897 83.994 30.9247 83.648 29.9299 83.648C28.9351 83.648 28.1133 83.994 27.4213 84.6427C26.7293 85.2915 26.4698 86.243 26.4698 87.2378ZM29.1081 77.4198C29.0649 78.1118 29.2379 78.7606 29.6704 79.3661C30.1029 80.0149 30.7949 80.4474 31.7464 80.7501C32.6547 81.0096 33.5197 80.9231 34.428 80.4474C35.3363 79.9716 35.9418 79.2363 36.2446 78.2416L37.4124 74.3489C37.7151 73.3109 37.6286 72.3594 37.1096 71.5376C36.5906 70.7158 35.8121 70.1536 34.774 69.8508C33.8225 69.548 32.9142 69.6345 32.0492 70.1536C31.1842 70.6293 30.5787 71.3646 30.2759 72.3161L29.2379 76.2952C29.1514 76.9873 29.1081 77.3765 29.1081 77.4198ZM34.082 113.275C34.082 114.01 34.2983 114.702 34.774 115.394C35.2498 116.086 35.9418 116.562 36.8933 116.822C37.2826 116.908 37.6286 116.951 37.9314 116.951C39.7912 116.951 40.959 116.086 41.3915 114.313L41.9537 111.761C42.2132 110.637 42.0835 109.685 41.6077 108.82C41.132 107.955 40.3534 107.436 39.3587 107.22C38.4504 106.917 37.5421 107.004 36.6338 107.523C35.7256 108.042 35.1633 108.777 34.8605 109.728L34.255 112.324C34.1253 112.799 34.082 113.145 34.082 113.275ZM36.5041 16.2192C36.5041 17.2573 36.8501 18.1223 37.5421 18.8143L40.3967 21.5824C41.0022 22.2744 41.7807 22.6204 42.7323 22.7069C43.6838 22.7934 44.5921 22.4042 45.4138 21.5824C46.1059 20.8904 46.4519 20.0253 46.4519 19.0306C46.4519 17.9925 46.1059 17.1275 45.4138 16.4355L42.689 13.6241C42.0402 12.9321 41.1752 12.5861 40.1804 12.4996C39.1857 12.4996 38.3206 12.8456 37.5854 13.5809C36.8933 14.3162 36.5041 15.1812 36.5041 16.2192ZM37.4989 100.732C37.4989 101.727 37.8449 102.549 38.5369 103.241C39.2289 103.933 40.0939 104.279 41.0455 104.279C42.0835 104.279 42.9053 103.933 43.5973 103.284C44.2893 102.592 44.5921 101.77 44.5921 100.732C44.5921 99.7374 44.2461 98.9157 43.5973 98.2236C42.9053 97.5316 42.0835 97.2289 41.0455 97.2289C40.0074 97.2289 39.1857 97.5749 38.4936 98.2236C37.8016 98.8724 37.4989 99.7374 37.4989 100.732ZM40.1804 90.9142C40.1372 91.5629 40.3102 92.255 40.786 92.947C41.2185 93.639 41.8672 94.0715 42.7323 94.2445C43.727 94.504 44.6353 94.4175 45.5003 93.985C46.3654 93.5525 46.9276 92.7307 47.2736 91.5629L48.3982 87.6703C48.7009 86.7188 48.6144 85.8105 48.0954 84.9455C47.5764 84.0805 46.8411 83.5182 45.8031 83.2154C44.8516 82.9127 43.9433 83.0424 43.035 83.5615C42.1267 84.0805 41.5645 84.859 41.2617 85.8538L40.3102 89.7464C40.2237 90.0924 40.1804 90.4817 40.1804 90.9142ZM52.1178 100.213C52.1178 100.948 52.334 101.64 52.7666 102.289C53.1991 102.938 53.8478 103.414 54.7561 103.673C54.8859 103.673 55.1021 103.717 55.3616 103.76C55.6211 103.803 55.8374 103.846 55.9672 103.846C57.7405 103.846 58.8217 102.895 59.2543 100.992L59.8598 98.3966C60.1625 97.4884 60.076 96.5801 59.557 95.6718C59.038 94.7635 58.3027 94.2013 57.3512 93.8985C56.2699 93.639 55.2751 93.7255 54.4101 94.2445C53.5451 94.7635 52.9396 95.4988 52.6368 96.5368L52.2475 99.0887C52.2475 99.1319 52.2475 99.3049 52.2043 99.5644C52.161 99.8672 52.1178 100.04 52.1178 100.213ZM55.3184 87.4108C55.3184 88.4056 55.6644 89.2274 56.3564 89.8761C57.0052 90.5682 57.827 90.9142 58.865 90.9142C59.903 90.9142 60.7248 90.5682 61.4168 89.9194C62.1088 89.2274 62.4116 88.4056 62.4116 87.4108C62.4116 86.3728 62.0656 85.551 61.4168 84.859C60.7248 84.167 59.903 83.8642 58.865 83.8642C57.827 83.8642 57.0052 84.2102 56.3132 84.859C55.6211 85.5078 55.3184 86.3728 55.3184 87.4108ZM57.9567 77.4198C57.9567 78.155 58.173 78.8471 58.6487 79.4958C59.1245 80.1446 59.8165 80.6204 60.768 80.8799C60.8545 80.8799 61.0276 80.9231 61.2871 80.9664C61.5466 81.0096 61.7628 81.0529 61.8926 81.0529C62.3683 81.0529 62.8874 80.9231 63.4929 80.6636C64.4012 80.1879 64.9634 79.4526 65.2229 78.4146L66.261 74.5219C66.5205 73.5272 66.434 72.6189 65.9582 71.7971C65.4824 70.9753 64.7472 70.3698 63.7956 70.0671C62.8009 69.7643 61.8493 69.8508 61.0276 70.3266C60.1625 70.8023 59.6003 71.4944 59.2975 72.5324L58.0865 76.4682C58.0865 76.5548 58.0865 76.6845 58.0432 76.944C58 77.0738 57.9567 77.2468 57.9567 77.4198ZM59.4705 35.3795C62.3251 32.525 65.8717 31.0977 70.1536 31.0977C74.4355 31.0977 78.0686 32.5682 81.0529 35.5093C84.0372 38.4504 85.551 41.997 85.551 46.2356C85.551 49.0902 84.7725 51.815 83.2587 54.3668C79.0201 50.1282 73.9597 48.0089 68.1208 48.0089H66.78C65.5689 43.2513 63.1036 39.0559 59.4705 35.3795ZM66.607 12.6294C66.607 13.6241 66.953 14.4459 67.6017 15.1379C68.2505 15.7867 69.1155 16.1327 70.1536 16.1327C71.1916 16.1327 72.0999 15.7867 72.8351 15.1379C73.5704 14.4892 73.9164 13.6241 73.9164 12.6294V3.67636C73.9164 2.68158 73.5272 1.81655 72.7919 1.08128C72.0566 0.34601 71.1484 0 70.1536 0C69.1588 0 68.2938 0.34601 67.645 1.08128C66.953 1.81655 66.6502 2.68158 66.6502 3.67636V12.6294H66.607ZM90.4817 22.4042C90.4817 23.4854 90.8277 24.3505 91.4764 24.9992C93.0335 26.5563 94.7635 26.5563 96.7099 24.9992L102.895 18.8143C103.63 18.079 103.976 17.1708 103.976 16.0895C103.976 15.0514 103.63 14.1864 102.895 13.4944C102.16 12.7591 101.294 12.4131 100.3 12.4131C99.3049 12.4131 98.4399 12.7591 97.6614 13.4511L91.4764 19.8523C90.8277 20.5011 90.4817 21.3229 90.4817 22.4042ZM93.8553 73.6569C93.8553 74.6517 94.2445 75.5167 95.0231 76.2087L97.6614 78.9336C98.5264 79.6256 99.3914 79.9716 100.3 79.9716C101.165 79.9716 102.03 79.6256 102.895 78.9336C103.63 78.2415 103.976 77.4198 103.976 76.3817C103.976 75.387 103.63 74.5219 102.895 73.7002L100.083 71.0618C99.4347 70.3266 98.6129 69.9806 97.6181 69.9806C96.6233 69.9806 95.7583 70.3266 95.0231 71.0618C94.2445 71.7971 93.8553 72.6621 93.8553 73.6569ZM100.256 46.2356C100.256 47.2736 100.646 48.0954 101.381 48.7874C102.16 49.566 103.068 49.9552 104.063 49.9552H112.843C113.837 49.9552 114.702 49.6092 115.394 48.8739C116.086 48.1387 116.432 47.2736 116.432 46.2356C116.432 45.1976 116.086 44.3326 115.394 43.6405C114.702 42.9053 113.881 42.5593 112.843 42.5593H104.063C103.025 42.5593 102.16 42.9053 101.381 43.6405C100.602 44.3758 100.256 45.2408 100.256 46.2356Z" fill="white"/>
</svg>
