<svg width="117" height="121" viewBox="0 0 117 121" fill="none" xmlns="http://www.w3.org/2000/svg">
<path d="M0 61.9979C0 69.0818 2.50335 75.1538 7.45679 80.267C12.4102 85.3802 18.4822 88.0966 25.5661 88.3097C26.2053 88.3097 26.5249 87.9901 26.5249 87.4042V80.267C26.5249 79.6811 26.2053 79.3615 25.5661 79.3615C21.0388 79.1485 17.1506 77.2843 13.9548 73.8755C10.7591 70.4667 9.10794 66.4719 9.10794 61.9979C9.10794 57.4705 10.5993 53.5291 13.6353 50.2268C16.6712 46.9245 20.3996 45.0603 24.8205 44.6875L27.6434 44.3146C28.3358 44.3146 28.7086 43.9951 28.7086 43.3559L29.0815 40.6395C29.6674 34.7806 32.0642 29.8804 36.3785 25.9922C40.6928 22.1041 45.7527 20.1333 51.6116 20.1333C57.4173 20.1333 62.4772 22.1041 66.8448 25.9922C71.2123 29.8804 73.7157 34.7273 74.3016 40.4797L74.6744 43.5157C74.6744 44.1548 74.994 44.5277 75.5799 44.5277H84.2084C89.0554 44.5277 93.1566 46.2321 96.6187 49.6942C100.081 53.103 101.785 57.2042 101.785 61.9979C101.785 64.9273 101.039 67.697 99.6014 70.3069C98.1633 72.9167 96.1393 75.0473 93.5827 76.6984C91.0261 78.3495 88.2564 79.255 85.2737 79.4148C84.5813 79.4148 84.2084 79.7344 84.2084 80.3203V87.4575C84.2084 88.0434 84.5813 88.3629 85.2737 88.3629C89.9608 88.2564 94.2751 86.9781 98.1633 84.5813C102.051 82.1845 105.141 78.9887 107.378 74.994C109.615 70.9993 110.733 66.685 110.733 62.0511C110.733 57.364 109.508 52.8899 107.111 48.6822C111.532 44.7407 114.355 40.0536 115.527 34.7273L116.273 31.1055C116.379 30.9989 116.432 30.8924 116.432 30.7326C116.432 30.413 116.113 30.1467 115.527 29.8804L112.598 28.9217C109.562 28.0162 106.898 26.5249 104.768 24.3944C102.584 22.2638 101.039 20.0801 100.134 17.7365C99.2286 15.4462 98.7492 13.1559 98.7492 10.8656C98.6427 9.74709 98.8025 8.25573 99.2286 6.49806L99.921 3.40882C100.134 2.87619 99.921 2.45009 99.2286 2.18377L94.9675 0.905468C92.7838 0.319577 90.4935 0 88.0966 0C86.1792 0 84.1552 0.213052 82.1312 0.692417C80.1072 1.17178 77.9767 1.8642 75.7929 2.87619C73.6092 3.88818 71.4787 5.32628 69.4014 7.19047C67.3242 9.05467 65.5665 11.2384 64.0751 13.7418C59.7608 12.0907 55.5531 11.2917 51.5584 11.2917C44.0483 11.2917 37.3372 13.6353 31.5316 18.3224C25.7259 23.0095 21.9443 28.975 20.2931 36.272C14.3277 37.8166 9.42751 40.9591 5.64585 45.6995C1.8642 50.3333 0 55.8194 0 61.9979ZM28.8152 99.5481C28.8152 100.454 29.0815 101.359 29.6674 102.265C30.2533 103.17 31.1055 103.756 32.1707 104.129C33.3958 104.502 34.5143 104.448 35.5795 103.916C36.6448 103.383 37.2839 102.424 37.6568 100.933L38.4025 97.6839C38.6688 96.4589 38.509 95.3404 37.9231 94.3284C37.3372 93.2631 36.4317 92.5707 35.1534 92.1979C33.9284 91.825 32.8099 91.9848 31.7446 92.624C30.6794 93.2631 29.9337 94.2218 29.6141 95.4469L28.9217 98.5361C28.8152 98.7492 28.8152 99.0688 28.8152 99.5481ZM32.8631 84.1019C32.8631 85.2204 33.2892 86.2324 34.1947 87.1379C35.0469 88.0434 36.0056 88.4695 37.1774 88.4695C38.4557 88.4695 39.521 88.0434 40.3732 87.1912C41.2254 86.339 41.6515 85.327 41.6515 84.0487C41.6515 82.8236 41.2254 81.7584 40.3732 80.9062C39.521 80.054 38.4557 79.6279 37.1774 79.6279C35.9524 79.6279 34.8871 80.054 34.0882 80.8529C33.2892 81.6518 32.8631 82.8769 32.8631 84.1019ZM36.1122 72.0113C36.0589 72.8635 36.2719 73.6624 36.8578 74.4081C37.3905 75.207 38.2427 75.7397 39.4145 76.1125C40.533 76.4321 41.5982 76.3256 42.7167 75.7397C43.8353 75.1538 44.5277 74.2483 44.9005 73.0233L46.3919 68.2296C46.7647 66.9513 46.6582 65.7795 46.019 64.7675C45.3799 63.7555 44.4212 63.0631 43.1429 62.6903C41.9711 62.3174 40.8525 62.424 39.7873 63.0631C38.722 63.649 37.9764 64.5545 37.6035 65.7263L36.3252 70.6264C36.3252 70.733 36.2719 70.946 36.2187 71.2656C36.1122 71.5319 36.1122 71.7982 36.1122 72.0113ZM42.2906 116.166C42.2906 117.125 42.557 117.977 43.0896 118.829C43.6222 119.681 44.4744 120.267 45.6462 120.587C46.0723 120.693 46.5517 120.747 46.9778 120.747C49.2681 120.747 50.6529 119.681 51.1855 117.498L51.9312 114.355C52.2508 112.97 52.091 111.799 51.5051 110.733C50.9192 109.668 49.9605 109.029 48.7354 108.763C47.6169 108.39 46.4984 108.496 45.3799 109.135C44.2614 109.775 43.569 110.68 43.1961 111.852L42.4504 114.994C42.3439 115.474 42.2906 115.847 42.2906 116.166ZM46.4451 100.72C46.4451 101.892 46.8712 102.904 47.7767 103.809C48.6289 104.661 49.6409 105.087 50.8127 105.087C52.091 105.087 53.103 104.661 53.9552 103.862C54.8074 103.01 55.1802 101.998 55.1802 100.72C55.1802 99.4949 54.7541 98.4829 53.9552 97.6307C53.1562 96.7785 52.091 96.4056 50.8127 96.4056C49.5344 96.4056 48.5224 96.8317 47.6702 97.6307C46.8712 98.4296 46.4451 99.4949 46.4451 100.72ZM49.8007 88.6293C49.7474 89.4282 49.9605 90.2804 50.4931 91.1326C51.0257 91.9848 51.8247 92.5174 52.8899 92.7305C54.115 93.0501 55.2335 92.9435 56.2988 92.4109C57.3107 91.8783 58.0564 90.8663 58.4825 89.4282L59.9206 84.6346C60.2935 83.4628 60.1869 82.3442 59.5478 81.279C58.9086 80.2137 58.0032 79.5213 56.7249 79.1485C55.5531 78.7756 54.4346 78.9354 53.316 79.5746C52.1975 80.2137 51.5051 81.1725 51.1323 82.3975L49.9605 87.1912C49.854 87.6173 49.8007 88.0966 49.8007 88.6293ZM64.448 100.081C64.448 100.933 64.7143 101.785 65.2469 102.637C65.7795 103.49 66.6317 104.075 67.697 104.395C67.8568 104.395 68.1231 104.448 68.4427 104.502C68.7622 104.555 68.9753 104.608 69.1883 104.608C71.3721 104.608 72.7037 103.436 73.2363 101.093L73.982 97.897C74.3548 96.7785 74.2483 95.6599 73.6092 94.5414C73.0233 93.4229 72.1178 92.7305 70.8928 92.3577C69.5612 92.0381 68.3361 92.1446 67.2709 92.7837C66.2056 93.4229 65.46 94.3284 65.0871 95.6067L64.6078 98.7492C64.6078 98.8557 64.5545 99.122 64.5012 99.3883C64.5012 99.6547 64.448 99.8677 64.448 100.081ZM68.3894 84.315C68.3894 85.4868 68.8155 86.552 69.721 87.351C70.5199 88.2032 71.5319 88.6293 72.757 88.6293C74.0353 88.6293 75.0473 88.2032 75.8995 87.4042C76.7517 86.6053 77.1245 85.54 77.1245 84.315C77.1245 83.0367 76.6984 82.0247 75.8995 81.1725C75.1005 80.3203 74.0353 79.9474 72.757 79.9474C71.4786 79.9474 70.4667 80.3735 69.6144 81.1725C68.7622 81.9714 68.3894 83.0367 68.3894 84.315ZM71.6384 72.0113C71.6384 72.9167 71.9048 73.769 72.4906 74.5679C73.0765 75.3668 73.9287 75.9527 75.1005 76.2723C75.207 76.2723 75.4201 76.3256 75.7397 76.3788C76.0593 76.4321 76.3256 76.4853 76.4854 76.4853C77.018 76.4853 77.6571 76.3256 78.4028 76.006C79.5213 75.4201 80.267 74.4614 80.5866 73.2363L81.8649 68.4427C82.1845 67.2176 82.0779 66.0991 81.4388 65.0871C80.8529 64.0219 79.9474 63.3294 78.7224 62.9566C77.4973 62.5838 76.3788 62.6903 75.3136 63.2762C74.2483 63.8621 73.6092 64.7143 73.2363 65.9926L71.745 70.8395C71.745 70.946 71.6917 71.1591 71.6384 71.4786C71.6917 71.6384 71.6384 71.8515 71.6384 72.0113ZM72.0113 18.4822C73.7157 15.3929 76.0592 13.0494 78.9887 11.345C81.9714 9.64056 85.0074 8.84162 88.2032 8.89488C88.6825 8.89488 89.2152 8.94815 89.801 9.05467V10.7058C89.7478 15.9256 91.1326 20.8257 93.9023 25.4063C96.7252 29.9869 100.667 33.3958 105.727 35.7393C104.715 37.9231 103.277 39.8938 101.466 41.6515C96.5654 37.6035 90.813 35.5795 84.2617 35.5795H82.6106C80.9594 28.6021 77.4441 22.903 72.0113 18.4822Z" fill="white"/>
</svg>
