<svg width="117" height="119" viewBox="0 0 117 119" fill="none" xmlns="http://www.w3.org/2000/svg">
<path d="M0 69.435C0 75.1959 1.99252 80.1339 6.02087 84.2922C10.0492 88.4505 14.9439 90.6596 20.7482 90.9195C21.2247 90.9195 21.4846 90.6596 21.4846 90.1832V84.2489C21.4846 83.7291 21.2247 83.4692 20.7482 83.4692C16.9797 83.166 13.8177 81.6933 11.2621 78.9644C8.70644 76.2788 7.40697 73.0735 7.40697 69.3916C7.40697 65.7531 8.61981 62.5911 11.0888 59.9055C13.5578 57.22 16.5466 55.7039 20.1851 55.4007L22.4375 55.0542C23.0006 55.0542 23.3038 54.7943 23.3038 54.3178L23.5637 52.1087C24.0402 47.4306 25.9894 43.4889 29.4979 40.3702C33.0065 37.2081 37.1215 35.6488 41.8862 35.6488C46.6076 35.6488 50.7226 37.2081 54.2312 40.3702C57.7397 43.4889 59.7323 47.4306 60.252 52.152L60.5553 54.6643C60.5553 55.1408 60.8152 55.4007 61.3783 55.4007H68.3088C72.2505 55.4007 75.5858 56.7868 78.358 59.5157C81.1302 62.2446 82.5163 65.5365 82.5163 69.3916C82.5163 73.0735 81.2168 76.2788 78.6612 78.9644C76.1056 81.65 72.9435 83.166 69.1751 83.4692C68.612 83.4692 68.3088 83.7291 68.3088 84.2489V90.1832C68.3088 90.6596 68.612 90.9195 69.1751 90.9195C74.9361 90.7463 79.8307 88.5372 83.8158 84.3789C87.8008 80.2206 89.7933 75.2393 89.7933 69.435C89.7933 66.4895 89.1003 63.5007 87.7575 60.4686C91.1361 56.397 92.8687 51.6756 92.8687 46.3044C92.8687 43.229 92.2623 40.2835 91.0495 37.468C89.8366 34.6525 88.2339 32.2701 86.1981 30.2343C84.1623 28.1985 81.7366 26.5958 78.9644 25.383C76.1489 24.2134 73.2467 23.607 70.1713 23.607C63.5007 23.607 57.8697 26.1193 53.3649 31.1006C49.6397 29.3247 45.8279 28.4151 41.8862 28.4151C35.7354 28.4151 30.3209 30.2776 25.5995 34.0461C20.8781 37.8145 17.846 42.6659 16.5033 48.6435C11.7385 49.7697 7.79682 52.2387 4.67809 56.1371C1.55936 60.0355 0 64.4537 0 69.435ZM32.4867 118.252H33.7862L56.8301 84.2489C57.0034 84.0756 57.0467 83.8591 56.9167 83.6425C56.7868 83.4259 56.6135 83.3393 56.3103 83.3393H46.8675L56.8301 65.1034C57.1333 64.497 56.9601 64.1505 56.2237 64.1505H43.4889C43.1424 64.1505 42.8392 64.367 42.536 64.7569L33.1798 89.5334C33.0931 90.1398 33.2664 90.443 33.7862 90.443H43.1857L32.4867 118.252ZM36.2985 16.1134C36.2985 17.1963 36.645 18.1059 37.3381 18.799L40.1969 21.6145C42.0162 23.0006 43.7488 23.0006 45.4381 21.6145C46.1311 20.8348 46.4777 19.9252 46.4777 18.8423C46.4777 17.846 46.1311 16.9797 45.4381 16.2867L42.6659 13.4712C41.8429 12.7348 40.9766 12.3883 39.9803 12.3883C38.9841 12.3883 38.1178 12.7348 37.3814 13.4712C36.645 14.2075 36.2985 15.1172 36.2985 16.1134ZM59.429 35.3022C62.3745 32.3568 65.9697 30.884 70.1713 30.884C74.4163 30.884 78.0115 32.4001 80.9569 35.3889C83.9457 38.3777 85.4184 42.0162 85.4184 46.3044C85.4184 48.9467 84.6821 51.5456 83.2093 54.1445C78.9644 50.0729 73.9831 48.037 68.2221 48.037H66.8793C65.7531 43.0991 63.2408 38.8541 59.429 35.3022ZM66.4462 12.3883C66.4462 13.4712 66.7927 14.3808 67.4858 15.0738C68.1788 15.7669 69.0451 16.1134 70.128 16.1134C71.1676 16.1134 71.9906 15.7669 72.6836 15.0738C73.3767 14.3808 73.6799 13.4712 73.6799 12.3883V3.55188C73.6799 2.51231 73.3334 1.68931 72.6836 0.99626C71.9906 0.30321 71.1676 0 70.128 0C69.0884 0 68.2221 0.346525 67.5291 0.99626C66.836 1.64599 66.4462 2.51231 66.4462 3.55188V12.3883ZM90.3564 22.4375C90.3564 23.4338 90.7463 24.3001 91.5259 25.0364C92.3056 25.7728 93.1286 26.1193 93.9083 26.1193C94.6013 26.1193 95.511 25.7728 96.5939 25.0364L102.831 18.8423C103.568 18.0626 103.914 17.153 103.914 16.1134C103.914 15.0738 103.568 14.1642 102.831 13.4712C102.095 12.7781 101.229 12.4316 100.232 12.4316C99.2794 12.4316 98.4564 12.7781 97.7201 13.5145L91.5259 19.7086C90.7463 20.5316 90.3564 21.4412 90.3564 22.4375ZM93.865 73.6366C93.865 74.6328 94.2115 75.4991 94.9046 76.2788L97.7201 79.1377C98.4131 79.8307 99.2794 80.1772 100.232 80.1772C101.272 80.1772 102.138 79.8307 102.831 79.0943C103.568 78.358 103.914 77.4484 103.914 76.3655C103.914 75.3692 103.568 74.5462 102.831 73.8965L100.146 71.0376C99.3228 70.3446 98.4564 70.0414 97.4602 70.0414C96.4639 70.0414 95.5976 70.3879 94.9046 71.081C94.2115 71.774 93.865 72.6403 93.865 73.6366ZM100.146 46.3044C100.146 47.2574 100.536 48.0804 101.272 48.7734C102.008 49.5098 102.875 49.8563 103.871 49.8563H112.707C113.747 49.8563 114.613 49.5098 115.35 48.8167C116.086 48.1237 116.432 47.3007 116.432 46.2611C116.432 45.2215 116.043 44.3552 115.306 43.6188C114.57 42.8825 113.704 42.536 112.707 42.536H103.871C102.875 42.536 102.008 42.8825 101.272 43.6188C100.536 44.3985 100.146 45.2648 100.146 46.3044Z" fill="white"/>
</svg>
