<svg width="117" height="107" viewBox="0 0 117 107" fill="none" xmlns="http://www.w3.org/2000/svg">
<path d="M0 57.4284C0 61.0143 0.651979 64.3828 2.0646 67.6427C3.47722 70.9026 5.27016 73.6735 7.60641 76.0641C9.94267 78.4547 12.7136 80.3563 15.8648 81.7689C19.016 83.1815 22.4389 84.0508 26.0248 84.2138C26.6768 84.2138 27.0028 83.8879 27.0028 83.2902V76.0098C27.0028 75.4121 26.6768 75.0861 26.0248 75.0861C21.298 74.7602 17.3318 72.8586 14.1262 69.49C10.9206 66.1214 9.29069 62.0466 9.29069 57.4284C9.29069 52.8646 10.812 48.8984 13.9089 45.5841C17.0058 42.2156 20.7546 40.314 25.3185 39.9337L28.1437 39.6077C28.7957 39.6077 29.176 39.2817 29.176 38.6297L29.6107 35.8045C29.991 31.9469 31.2406 28.4154 33.3596 25.2642C35.4785 22.1129 38.2494 19.6137 41.6179 17.8751C44.9865 16.1365 48.6267 15.2128 52.5929 15.2128C58.515 15.2128 63.6765 17.1688 68.0774 21.0806C72.4782 24.9925 74.9775 29.8823 75.6295 35.6958L76.0098 38.847C76.0098 39.4447 76.3358 39.7707 77.0421 39.7707H85.7351C90.625 39.7707 94.8085 41.5093 98.34 44.9865C101.817 48.4637 103.61 52.5929 103.61 57.4284C103.61 62.1009 101.98 66.1214 98.7747 69.49C95.5691 72.8586 91.5486 74.7602 86.8761 75.0861C86.1698 75.0861 85.7895 75.4121 85.7895 76.0098V83.2902C85.7895 83.8879 86.1698 84.2138 86.8761 84.2138C94.1565 83.8879 100.296 81.1169 105.24 76.0098C110.021 70.8483 112.521 64.6545 112.521 57.4284C112.521 53.9512 111.651 50.2567 109.967 46.2361C114.259 40.8573 116.432 34.9352 116.432 28.4697C116.432 23.3082 115.128 18.527 112.575 14.1805C110.021 9.77967 106.544 6.35679 102.198 3.8032C97.8511 1.24962 93.0699 0 87.9627 0C79.324 0 72.3152 3.15123 66.9364 9.39935C62.5356 7.0631 57.7001 5.92213 52.4842 5.92213C44.8235 5.92213 38.0321 8.31272 32.1099 13.0939C26.1878 17.8751 22.3846 23.9602 20.7003 31.4036C14.6152 32.8162 9.67101 35.9131 5.81347 40.7486C1.9016 45.5841 0 51.126 0 57.4284ZM41.5636 82.5296C41.4549 83.2902 41.6723 83.6705 42.3242 83.6705H54.1142L46.9424 106.327H48.518L71.2286 76.0098C71.4459 75.7925 71.5003 75.5208 71.3373 75.2491C71.1743 74.9775 70.957 74.8688 70.5766 74.8688H58.7324L71.2286 51.8323C71.6089 51.0716 71.3916 50.637 70.468 50.637H54.4945C54.0599 50.637 53.7339 50.9086 53.3535 51.3976L41.5636 82.5296ZM74.4885 14.6152C78.1287 11.0293 82.5839 9.23636 87.9084 9.23636C93.2329 9.23636 97.7424 11.0836 101.491 14.8325C105.24 18.527 107.087 23.0909 107.087 28.4697C107.087 31.6753 106.164 34.9352 104.262 38.2494C98.992 33.1966 92.7439 30.643 85.5178 30.643H83.8335C82.3122 24.1775 79.161 18.853 74.4885 14.6152Z" fill="white"/>
</svg>
