<svg width="117" height="117" viewBox="0 0 117 117" fill="none" xmlns="http://www.w3.org/2000/svg">
<path d="M0 58.4094C0 56.9414 0.540826 55.628 1.54522 54.5463C2.54961 53.4647 3.78579 52.9238 5.25375 52.9238C6.72172 52.9238 8.03515 53.4647 9.03955 54.5463C10.0439 55.628 10.5848 56.8641 10.5848 58.4094C10.5848 59.8773 10.0439 61.1135 9.03955 62.1179C8.03515 63.1223 6.72171 63.6631 5.33101 63.6631C3.94031 63.6631 2.62688 63.1223 1.62248 62.1179C0.463567 61.0362 0 59.8001 0 58.4094ZM15.2977 58.4094C15.2977 56.9414 15.8385 55.628 16.8429 54.5463C17.8473 53.4647 19.0835 52.9238 20.5514 52.9238H45.5068L27.8912 35.3083C26.8096 34.3812 26.2688 33.145 26.2688 31.677C26.2688 30.2091 26.8096 28.9729 27.8912 27.8912C28.9729 26.8096 30.2091 26.2688 31.677 26.2688C33.145 26.2688 34.3812 26.8096 35.4628 27.8912L53.0011 45.4295V20.6287C53.0011 19.1607 53.5419 17.8473 54.6236 16.7657C55.7052 15.684 56.9414 15.1432 58.4866 15.1432C59.9546 15.1432 61.1908 15.684 62.1952 16.7657C63.1996 17.8473 63.7404 19.0835 63.7404 20.6287V45.584L81.4332 27.814C82.5148 26.7323 83.751 26.1915 85.1417 26.1915C86.5324 26.1915 87.8458 26.7323 88.9275 27.814C89.8546 28.8956 90.3182 30.1318 90.3182 31.5998C90.3182 33.0677 89.8546 34.3039 88.9275 35.231L71.312 52.8466H96.2673C97.658 52.8466 98.8942 53.3874 99.8986 54.469C100.903 55.5507 101.444 56.7869 101.444 58.3321C101.444 59.7228 100.903 60.959 99.8986 61.9634C98.8942 62.9678 97.658 63.5086 96.2673 63.5086H71.312L89.0047 81.2014C89.9319 82.1285 90.3954 83.3647 90.3954 84.8326C90.3954 86.3006 89.9319 87.5368 89.0047 88.6184C87.9231 89.7001 86.6097 90.2409 85.219 90.2409C83.8283 90.2409 82.5148 89.7001 81.5104 88.6184L63.8176 70.8484V95.881C63.8176 97.3489 63.2768 98.6624 62.2724 99.6668C61.268 100.671 60.0318 101.212 58.5639 101.212C57.0959 101.212 55.7825 100.671 54.7008 99.6668C53.6192 98.6624 53.0784 97.3489 53.0784 95.881V71.0029L35.5401 88.5412C34.4584 89.6228 33.2223 90.1637 31.7543 90.1637C30.2863 90.1637 29.0502 89.6228 27.9685 88.5412C26.8869 87.4595 26.346 86.2233 26.346 84.7554C26.346 83.2874 26.8869 82.1285 27.9685 81.1241L45.7386 63.4313H20.706C19.238 63.4313 18.0018 62.8905 16.9974 61.8861C15.7613 61.0362 15.2977 59.8001 15.2977 58.4094ZM15.375 95.8037C15.375 94.413 15.9158 93.0996 16.9974 92.0952C17.9246 91.0135 19.1607 90.4727 20.6287 90.4727C22.0967 90.4727 23.3328 91.0135 24.4145 92.0952C25.4962 93.1768 26.037 94.413 26.037 95.8037C26.037 97.1944 25.4962 98.5079 24.4145 99.5122C23.3328 100.594 22.0967 101.135 20.6287 101.135C19.1607 101.135 17.9246 100.594 16.9974 99.5122C15.9158 98.5079 15.375 97.2717 15.375 95.8037ZM15.375 20.7832C15.375 19.3925 15.9158 18.0791 16.9974 17.0747C17.9246 15.993 19.1607 15.4522 20.6287 15.4522C22.0967 15.4522 23.3328 15.993 24.4145 17.0747C25.4962 18.1564 26.037 19.3925 26.037 20.7832C26.037 22.1739 25.4962 23.4874 24.4145 24.569C23.3328 25.6507 22.0967 26.1915 20.6287 26.1915C19.1607 26.1915 17.9246 25.6507 16.9974 24.569C15.9158 23.4874 15.375 22.1739 15.375 20.7832ZM52.8466 111.256C52.8466 109.865 53.3874 108.629 54.4691 107.625C55.5507 106.62 56.7869 106.079 58.3321 106.079C59.8001 106.079 61.0362 106.62 62.0406 107.625C63.045 108.629 63.5859 109.865 63.5859 111.256C63.5859 112.724 63.045 114.037 62.0406 115.042C61.0362 116.046 59.8001 116.587 58.3321 116.587C56.8641 116.587 55.5507 116.046 54.4691 115.042C53.3874 114.037 52.8466 112.801 52.8466 111.256ZM52.8466 5.33101C52.8466 3.86305 53.3874 2.54962 54.4691 1.54522C55.5507 0.54083 56.7869 0 58.3321 0C59.8001 0 61.0362 0.54083 62.0406 1.54522C63.045 2.54962 63.5859 3.86305 63.5859 5.33101C63.5859 6.72171 63.045 7.95789 62.0406 8.96229C61.0362 9.96668 59.8001 10.5075 58.3321 10.5075C56.8641 10.5075 55.5507 9.96668 54.4691 8.96229C53.3874 7.95789 52.8466 6.72171 52.8466 5.33101ZM90.4727 95.8037C90.4727 94.413 91.0135 93.0996 92.0952 92.0952C93.0223 91.0135 94.2585 90.4727 95.7265 90.4727C97.1944 90.4727 98.4306 91.0135 99.5123 92.0952C100.594 93.1768 101.135 94.413 101.135 95.8037C101.135 97.1944 100.594 98.5079 99.5123 99.5122C98.4306 100.594 97.1944 101.135 95.7265 101.135C94.2585 101.135 93.0223 100.594 92.0952 99.5122C91.0135 98.5079 90.4727 97.2717 90.4727 95.8037ZM90.4727 20.7832C90.4727 19.3925 91.0135 18.0791 92.0952 17.0747C93.0223 15.993 94.2585 15.4522 95.7265 15.4522C97.1944 15.4522 98.4306 15.993 99.5123 17.0747C100.594 18.1564 101.135 19.3925 101.135 20.7832C101.135 22.1739 100.594 23.4874 99.5123 24.569C98.4306 25.6507 97.1944 26.1915 95.7265 26.1915C94.2585 26.1915 93.0223 25.6507 92.0952 24.569C91.0135 23.4874 90.4727 22.1739 90.4727 20.7832ZM105.925 58.4094C105.925 56.9414 106.466 55.628 107.47 54.5463C108.475 53.4647 109.788 52.9238 111.256 52.9238C112.647 52.9238 113.883 53.4647 114.887 54.5463C115.892 55.628 116.432 56.8641 116.432 58.4094C116.432 59.8001 115.892 61.0362 114.887 62.0406C113.883 63.045 112.647 63.5859 111.256 63.5859C109.788 63.5859 108.475 63.045 107.47 62.0406C106.466 61.0362 105.925 59.8001 105.925 58.4094Z" fill="white"/>
</svg>
