<svg width="117" height="83" viewBox="0 0 117 83" fill="none" xmlns="http://www.w3.org/2000/svg">
<path d="M0 64.1202C0 62.9911 0.376347 62.0032 1.17609 61.2505C1.97582 60.4978 2.96374 60.1215 4.13982 60.1215H91.9699C93.1459 60.1215 94.0868 60.4978 94.8395 61.2505C95.5922 62.0032 95.9686 62.9441 95.9686 64.1202C95.9686 65.2022 95.5922 66.143 94.7925 66.8487C93.9927 67.6014 93.0519 67.9307 91.9699 67.9307H4.13982C2.96374 67.9307 1.97582 67.5543 1.17609 66.8487C0.376347 66.096 0 65.2022 0 64.1202ZM12.3254 49.3485C12.3254 48.2195 12.7488 47.2786 13.5485 46.5259C14.2542 45.8203 15.195 45.4439 16.3241 45.4439H104.154C105.236 45.4439 106.13 45.8203 106.883 46.573C107.635 47.3257 107.965 48.2195 107.965 49.3485C107.965 50.4776 107.588 51.4184 106.883 52.1711C106.13 52.9709 105.236 53.3472 104.154 53.3472H16.3241C15.195 53.3472 14.2542 52.9709 13.5015 52.1711C12.7017 51.3714 12.3254 50.4305 12.3254 49.3485ZM12.9369 38.1052C12.9369 38.5286 13.1722 38.7167 13.6426 38.7167H20.3698C20.6521 38.7167 20.9814 38.4815 21.3107 37.964C22.4397 35.5178 24.0862 33.5419 26.2973 31.9895C28.5083 30.4371 30.9546 29.5433 33.589 29.3551L36.1764 29.0258C36.6939 29.0258 36.9761 28.7435 36.9761 28.179L37.3054 25.8268C37.8229 20.7461 39.9399 16.5122 43.7504 13.1251C47.5609 9.73798 52.03 8.04442 57.1577 8.04442C62.2384 8.04442 66.6605 9.73798 70.471 13.0781C74.2345 16.4181 76.3985 20.6521 76.916 25.6857L77.2923 28.3672C77.2923 28.8846 77.6216 29.1669 78.2332 29.1669H85.7131C88.7239 29.1669 91.4994 29.9667 93.9927 31.6132C96.486 33.2597 98.3207 35.3766 99.5439 38.0581C99.8732 38.5756 100.202 38.8108 100.532 38.8108H107.259C107.823 38.8108 108.059 38.4815 107.918 37.7288C106.553 32.9304 103.778 28.9787 99.732 25.9209C95.6393 22.8631 90.982 21.3577 85.7601 21.3577H84.2547C82.7023 15.1009 79.4093 9.9732 74.3756 5.97451C69.342 1.97582 63.6497 0 57.2048 0C50.6187 0 44.7853 2.06991 39.6576 6.20973C34.5299 10.3495 31.2839 15.6184 29.8255 22.0163C25.8268 22.9572 22.2986 24.8389 19.2878 27.7086C16.277 30.5782 14.1601 33.9653 12.984 37.964V37.7759C12.9369 37.7759 12.9369 37.917 12.9369 38.1052ZM20.5109 78.5154C20.5109 77.3864 20.9343 76.4926 21.7341 75.7399C22.4397 75.0342 23.3806 74.6579 24.5567 74.6579H112.434C113.563 74.6579 114.504 75.0342 115.256 75.7399C116.056 76.4926 116.432 77.3864 116.432 78.4684C116.432 79.5974 116.056 80.5383 115.256 81.338C114.457 82.1378 113.516 82.5141 112.434 82.5141H24.5567C23.4747 82.5141 22.5338 82.0907 21.7341 81.291C20.9343 80.5854 20.5109 79.5974 20.5109 78.5154Z" fill="white"/>
</svg>
